<?xml version="1.0" encoding="UTF-8"?>
<svg id="_图层_1" data-name="图层 1" xmlns="http://www.w3.org/2000/svg" viewBox="0 0 2282.27 407.75">
  <defs>
    <style>
      .cls-1 {
        fill: #146cb3;
      }
    </style>
  </defs>
  <path class="cls-1" d="M142.99,407.75H0V.7H142.99V174.15L327.76,.7h176.27l-219.45,198.22,219.45,208.83h-169.19L142.99,227.94v179.81Z"/>
  <path class="cls-1" d="M683.12,0l63.71,261.92L848.77,0h65.83l91.32,256.97L1066.1,0h135.21l-101.94,407.04h-145.12l-78.58-194.68-74.33,194.68h-145.12L546.5,0h136.63Z"/>
  <path class="cls-1" d="M2198.03,193.96l74.33-38.22V.7h-489.16V407.75h499.07V236.44l-84.24-42.48ZM1926.2,55.21h204.58v117.52h-204.58V55.21Zm210.96,298.03h-210.96v-126.71h210.96v126.71Z"/>
  <path class="cls-1" d="M1689.76,.7h-445.98V407.75h441.02l55.93-57.35V53.8L1689.76,.7Zm-90.61,352.54h-213.79V56.63h213.79V353.24Z"/>
</svg>